<?xml version="1.0" encoding="iso-8859-1"?>
<!-- Generator: Adobe Illustrator 16.0.0, SVG Export Plug-In . SVG Version: 6.00 Build 0)  -->
<!DOCTYPE svg PUBLIC "-//W3C//DTD SVG 1.1//EN" "http://www.w3.org/Graphics/SVG/1.1/DTD/svg11.dtd">
<svg version="1.1" id="Capa_1" xmlns="http://www.w3.org/2000/svg" xmlns:xlink="http://www.w3.org/1999/xlink" x="0px" y="0px"
	 width="46.999px" height="46.999px" viewBox="0 0 46.999 46.999" style="enable-background:new 0 0 46.999 46.999;"
	 xml:space="preserve">
<g>
	<g>
		<path d="M37.59,19.945h-0.681v-6.529C36.909,6.018,30.893,0,23.496,0c-7.395,0-13.409,6.018-13.409,13.416v6.529H9.41
			c-2.769,0-5.031,2.265-5.031,5.034V41.97c0,2.763,2.263,5.029,5.031,5.029h28.18c2.77,0,5.03-2.267,5.03-5.029V24.979
			C42.62,22.21,40.357,19.945,37.59,19.945z M16.799,13.416c0-3.699,3.006-6.711,6.697-6.711c3.695,0,6.697,3.012,6.697,6.711v6.529
			H16.799V13.416z M33.512,43.928c-0.554,0.553-1.289,0.856-2.072,0.856s-1.521-0.306-2.074-0.857l-4.191-4.19
			c-1.176,0.559-2.468,0.852-3.781,0.852c-2.343,0-4.542-0.91-6.194-2.562c-1.655-1.653-2.566-3.856-2.566-6.205
			c0-2.346,0.911-4.551,2.566-6.205c1.655-1.655,3.859-2.566,6.207-2.566c2.347,0,4.552,0.911,6.209,2.565
			c2.643,2.646,3.296,6.649,1.707,9.978l4.189,4.19c0.555,0.552,0.859,1.288,0.859,2.071S34.064,43.374,33.512,43.928z"/>
		<path d="M17.16,27.574c-2.341,2.344-2.342,6.148,0.001,8.486c2.344,2.34,6.15,2.345,8.485,0.004
			c2.344-2.344,2.342-6.146,0.002-8.488C23.311,25.236,19.505,25.236,17.16,27.574z"/>
	</g>
</g>
<g>
</g>
<g>
</g>
<g>
</g>
<g>
</g>
<g>
</g>
<g>
</g>
<g>
</g>
<g>
</g>
<g>
</g>
<g>
</g>
<g>
</g>
<g>
</g>
<g>
</g>
<g>
</g>
<g>
</g>
</svg>
